<svg width="619" height="282" viewBox="0 0 619 282" fill="none" xmlns="http://www.w3.org/2000/svg">
<g opacity="0.15">
<path opacity="0.15" d="M151.271 127.838H142.617V3.1452H95.1329L24.7134 168.971H33.3678L24.6641 189.463V228.778H108.575V247.387H99.9207V278.855H142.699V247.387H151.353V228.843H171.903V189.529H151.271V127.838ZM108.493 189.463H64.6287L73.2995 168.971H64.6452L99.8714 85.8532V127.838H108.526L108.493 189.463Z" fill="#0B121D"/>
<path opacity="0.15" d="M351.079 67.7193C350.536 24.6044 327.221 0 285.003 0C242.225 0 218.943 25.2105 218.943 69.3083V212.921H227.598C227.696 256.888 251.043 282 293.674 282C336.304 282 359.749 256.888 359.749 212.659V69.3083C359.749 68.7677 359.749 68.2599 359.749 67.6702L351.079 67.7193ZM316.231 215.444C316.231 235.101 307.511 242.62 293.674 242.62C279.836 242.62 271.116 235.134 271.116 215.444V212.921H262.462V66.5563C262.462 46.899 271.182 39.3801 285.003 39.3801C298.823 39.3801 307.576 46.8662 307.576 66.5563V67.7193H316.231V215.444Z" fill="#0B121D"/>
<path opacity="0.15" d="M535.04 189.463V176.981H543.694V3.1452H496.21L437.686 141.008H429.032L408.449 189.463V228.778H492.36V278.789H535.138V228.843H555.705V189.529L535.04 189.463ZM500.949 176.981H492.294V189.463H448.397L468.931 141.008H477.585L500.949 85.8532V176.981Z" fill="#0B121D"/>
</g>
<g style="mix-blend-mode:lighten" opacity="0.15">
<g style="mix-blend-mode:lighten" opacity="0.15">
<g style="mix-blend-mode:lighten" opacity="0.15">
<path d="M185.031 127.838H176.376V3.1452H128.893L58.4732 168.971H67.1275L58.4238 189.463V228.778H142.335V247.387H133.68V278.855H176.459V247.387H185.113V228.843H205.663V189.529H185.031V127.838ZM98.3885 189.463L107.092 168.971H98.4379L133.664 85.8532V127.838H142.318V189.463H98.3885Z" fill="#991D1D"/>
</g>
</g>
<g style="mix-blend-mode:lighten" opacity="0.15">
<g style="mix-blend-mode:lighten" opacity="0.15">
<path d="M384.838 67.7193C384.295 24.6044 360.981 0 318.779 0C276.001 0 252.703 25.2105 252.703 69.3083V212.921H261.374C261.374 256.888 284.803 282 327.433 282C370.063 282 393.509 256.888 393.509 212.659V69.3083C393.509 68.7677 393.509 68.2599 393.509 67.6702L384.838 67.7193ZM349.991 215.444C349.991 235.101 341.27 242.62 327.433 242.62C313.596 242.62 304.876 235.134 304.876 215.444V212.921H296.304V66.5563C296.304 46.899 305.024 39.3801 318.861 39.3801C332.698 39.3801 341.419 46.8662 341.419 66.5563V67.7193H350.073L349.991 215.444Z" fill="#991D1D"/>
</g>
</g>
<g style="mix-blend-mode:lighten" opacity="0.15">
<g style="mix-blend-mode:lighten" opacity="0.15">
<path d="M568.799 189.463V176.981H577.454V3.1452H529.937L471.413 141.008H462.759L442.176 189.463V228.778H526.087V278.789H568.865V228.843H589.431V189.529L568.799 189.463ZM526.021 176.981V189.463H482.223L502.756 141.008H511.411L534.774 85.8532V176.981H526.021Z" fill="#991D1D"/>
</g>
</g>
<g style="mix-blend-mode:lighten" opacity="0.15">
<g style="mix-blend-mode:lighten" opacity="0.15">
<path d="M305.814 140.992H291.73V152.344H305.814V140.992Z" fill="#991D1D"/>
</g>
</g>
<g style="mix-blend-mode:lighten" opacity="0.15">
<g style="mix-blend-mode:lighten" opacity="0.15">
<path d="M389 90.4235H366.756V101.776H389V90.4235Z" fill="#991D1D"/>
</g>
</g>
<g style="mix-blend-mode:lighten" opacity="0.15">
<g style="mix-blend-mode:lighten" opacity="0.15">
<path d="M572.108 23.1465H549.863V34.4985H572.108V23.1465Z" fill="#991D1D"/>
</g>
</g>
<g style="mix-blend-mode:lighten" opacity="0.15">
<g style="mix-blend-mode:lighten" opacity="0.15">
<path d="M613.306 84.7393H574.904V96.0913H613.306V84.7393Z" fill="#991D1D"/>
</g>
</g>
<g style="mix-blend-mode:lighten" opacity="0.15">
<g style="mix-blend-mode:lighten" opacity="0.15">
<path d="M290.661 190.201H270.473V201.553H290.661V190.201Z" fill="#991D1D"/>
</g>
</g>
<g style="mix-blend-mode:lighten" opacity="0.15">
<g style="mix-blend-mode:lighten" opacity="0.15">
<path d="M409.188 185.991H389V197.343H409.188V185.991Z" fill="#991D1D"/>
</g>
</g>
<g style="mix-blend-mode:lighten" opacity="0.15">
<g style="mix-blend-mode:lighten" opacity="0.15">
<path d="M222.297 262.818H210.895V274.17H222.297V262.818Z" fill="#991D1D"/>
</g>
</g>
<g style="mix-blend-mode:lighten" opacity="0.15">
<g style="mix-blend-mode:lighten" opacity="0.15">
<path d="M481.384 13.9894H469.982V25.3415H481.384V13.9894Z" fill="#991D1D"/>
</g>
</g>
<g style="mix-blend-mode:lighten" opacity="0.15">
<g style="mix-blend-mode:lighten" opacity="0.15">
<path d="M618.998 195.868H607.596V207.22H618.998V195.868Z" fill="#991D1D"/>
</g>
</g>
</g>
<path d="M176.806 127.838H168.152V3.14517H120.668L50.2486 168.971H58.9029L50.1992 189.463V228.778H134.11V247.387H125.456V278.855H168.234V247.387H176.888V228.843H197.438V189.529H176.806V127.838ZM90.1639 189.463L98.8676 168.971H90.2133L125.439 85.8531V127.838H134.094V189.463H90.1639Z" fill="#991D1D"/>
<path d="M376.612 67.7193C376.069 24.6044 352.755 0 310.552 0C267.774 0 244.477 25.2105 244.477 69.3083V212.921H253.147C253.147 256.888 276.577 282 319.207 282C361.837 282 385.283 256.888 385.283 212.659V69.3083C385.283 68.7677 385.283 68.2599 385.283 67.6702L376.612 67.7193ZM341.764 215.444C341.764 235.101 333.044 242.62 319.207 242.62C305.37 242.62 296.649 235.134 296.649 215.444V212.921H288.077V66.5563C288.077 46.899 296.798 39.3801 310.635 39.3801C324.472 39.3801 333.192 46.8662 333.192 66.5563V67.7193H341.846L341.764 215.444Z" fill="#991D1D"/>
<path d="M560.575 189.463V176.981H569.229V3.14517H521.712L463.188 141.008H454.534L433.951 189.463V228.778H517.862V278.789H560.64V228.843H581.207V189.529L560.575 189.463ZM517.796 176.981V189.463H473.998L494.532 141.008H503.186L526.549 85.8531V176.981H517.796Z" fill="#991D1D"/>
<path d="M159.498 127.838H150.843V3.14517H103.359L32.94 168.971H41.5943L32.8906 189.463V228.778H116.802V247.387H108.147V278.855H150.925V247.387H159.58V228.843H180.13V189.529H159.498V127.838ZM116.719 189.463H72.8553L81.5261 168.971H72.8717L108.098 85.8531V127.838H116.752L116.719 189.463Z" fill="#0B121D"/>
<path d="M359.305 67.7193C358.762 24.6044 335.448 0 293.229 0C250.451 0 227.17 25.2105 227.17 69.3083V212.921H235.824C235.923 256.888 259.27 282 301.9 282C344.53 282 367.976 256.888 367.976 212.659V69.3083C367.976 68.7677 367.976 68.2599 367.976 67.6702L359.305 67.7193ZM324.457 215.444C324.457 235.101 315.737 242.62 301.9 242.62C288.063 242.62 279.343 235.134 279.343 215.444V212.921H270.688V66.5563C270.688 46.899 279.409 39.3801 293.229 39.3801C307.05 39.3801 315.803 46.8662 315.803 66.5563V67.7193H324.457V215.444Z" fill="#0B121D"/>
<path d="M543.266 189.463V176.981H551.921V3.14517H504.437L445.913 141.008H437.259L416.676 189.463V228.778H500.587V278.789H543.365V228.843H563.931V189.529L543.266 189.463ZM509.175 176.981H500.521V189.463H456.624L477.158 141.008H485.812L509.175 85.8531V176.981Z" fill="#0B121D"/>
<path d="M168.15 127.838H159.496V3.14517H112.028L41.5923 168.971H50.2467L41.543 189.463V228.778H125.454V247.387H116.8V278.855H159.578V247.387H168.232V228.843H188.7V189.529H168.15V127.838ZM81.5076 189.463L90.1784 168.971H81.5241L116.75 85.8531V127.838H125.405V189.463H81.5076Z" fill="white"/>
<path d="M367.957 67.7193C367.414 24.6044 344.1 0 301.898 0C259.12 0 235.822 25.2105 235.822 69.3083V212.921H244.477C244.575 256.888 267.922 282 310.552 282C353.183 282 376.628 256.888 376.628 212.659V69.3083C376.628 68.7677 376.628 68.2599 376.628 67.6702L367.957 67.7193ZM333.11 215.444C333.11 235.101 324.39 242.62 310.552 242.62C296.715 242.62 288.077 235.134 288.077 215.444V212.921H279.423V66.5563C279.423 46.899 288.143 39.3801 301.98 39.3801C315.817 39.3801 324.538 46.8662 324.538 66.5563V67.7193H333.192L333.11 215.444Z" fill="white"/>
<path d="M551.92 189.463V176.981H560.575V3.14517H513.091L454.567 141.008H445.913L425.33 189.463V228.778H509.241V278.789H552.019V228.843H572.586V189.529L551.92 189.463ZM509.142 176.981V189.463H465.278L485.812 141.008H494.466L517.83 85.8531V176.981H509.142Z" fill="white"/>
<path d="M197.356 116.486H146.779V127.838H197.356V116.486Z" fill="white"/>
<path d="M312.823 201.553H262.246V212.905H312.823V201.553Z" fill="white"/>
<path d="M396.933 79.0714H358.531V90.4235H396.933V79.0714Z" fill="white"/>
<path d="M395.517 174.639H357.115V185.991H395.517V174.639Z" fill="white"/>
<path d="M297.588 140.992H283.504V152.344H297.588V140.992Z" fill="#991D1D"/>
<path d="M259.927 161.173H231.117V172.525H259.927V161.173Z" fill="#0B121D"/>
<path d="M542.46 139.747H513.65V151.099H542.46V139.747Z" fill="#0B121D"/>
<path d="M262.247 28.8143H214.072V40.1664H262.247V28.8143Z" fill="white"/>
<path d="M380.776 90.4235H358.531V101.776H380.776V90.4235Z" fill="#991D1D"/>
<path d="M563.881 23.1464H541.637V34.4985H563.881V23.1464Z" fill="#991D1D"/>
<path d="M605.081 84.7392H566.68V96.0913H605.081V84.7392Z" fill="#991D1D"/>
<path d="M339.05 101.776H327.648V113.128H339.05V101.776Z" fill="#0B121D"/>
<path d="M590.848 240.097H522.238V251.449H590.848V240.097Z" fill="white"/>
<path d="M518.389 39.3801H429.492V50.7321H518.389V39.3801Z" fill="white"/>
<path d="M444.63 201.553H409.486V212.905H444.63V201.553Z" fill="white"/>
<path d="M81.5089 113.57H0V124.922H81.5089V113.57Z" fill="white"/>
<path d="M174.601 34.4985H147.947V45.8506H174.601V34.4985Z" fill="white"/>
<path d="M242.092 228.123H215.438V239.475H242.092V228.123Z" fill="#0B121D"/>
<path d="M256.802 239.491H230.148V250.843H256.802V239.491Z" fill="white"/>
<path d="M41.5438 136.29H24.959V147.643H41.5438V136.29Z" fill="#0B121D"/>
<path d="M282.434 190.201H262.246V201.553H282.434V190.201Z" fill="#991D1D"/>
<path d="M400.963 185.991H380.775V197.343H400.963V185.991Z" fill="#991D1D"/>
<path d="M386.057 254.988H350.156V259.296H386.057V254.988Z" fill="white"/>
<path d="M243.474 99.6296H214.072V103.938H243.474V99.6296Z" fill="white"/>
<path d="M449.977 76.9091H418.025V81.2173H449.977V76.9091Z" fill="white"/>
<path d="M357.757 7.06024H325.805V11.3685H357.757V7.06024Z" fill="white"/>
<path d="M185.527 173.59H155.846V177.898H185.527V173.59Z" fill="white"/>
<path d="M203.756 67.6538H191.301V71.962H203.756V67.6538Z" fill="white"/>
<path d="M113.873 54.2541H66.4551V58.5623H113.873V54.2541Z" fill="white"/>
<path d="M90.1629 249.303H75.207V253.612H90.1629V249.303Z" fill="white"/>
<path d="M576.813 122.301H556.543V126.609H576.813V122.301Z" fill="white"/>
<path d="M472.665 120.008H440.598V124.316H472.665V120.008Z" fill="white"/>
<path d="M343.673 158.274H311.605V162.582H343.673V158.274Z" fill="white"/>
<path d="M614.937 158.274H586.934V162.582H614.937V158.274Z" fill="white"/>
<path d="M487.129 266.34H465.971V270.648H487.129V266.34Z" fill="white"/>
<path d="M380.775 7.06024H372.943V11.3685H380.775V7.06024Z" fill="white"/>
<path d="M214.072 262.818H202.67V274.17H214.072V262.818Z" fill="#991D1D"/>
<path d="M473.16 13.9894H461.758V25.3415H473.16V13.9894Z" fill="#991D1D"/>
<path d="M610.773 195.868H599.371V207.22H610.773V195.868Z" fill="#991D1D"/>
<path d="M44.2927 48.4879H32.8906V59.84H44.2927V48.4879Z" fill="#0B121D"/>
<path d="M439.695 251.466H428.293V262.818H439.695V251.466Z" fill="#0B121D"/>
<path d="M414.636 124.447H403.234V135.799H414.636V124.447Z" fill="#0B121D"/>
<path d="M408.941 33.6959H397.539V45.0479H408.941V33.6959Z" fill="#0B121D"/>
</svg>
